<?xml version="1.0" encoding="UTF-8" standalone="no"?>
<!DOCTYPE svg PUBLIC "-//W3C//DTD SVG 1.1//EN" "http://www.w3.org/Graphics/SVG/1.1/DTD/svg11.dtd">
<!-- Created with Vectornator (http://vectornator.io/) -->
<svg height="100%" stroke-miterlimit="10" style="fill-rule:nonzero;clip-rule:evenodd;stroke-linecap:round;stroke-linejoin:round;" version="1.1" viewBox="0 0 1024 1024" width="100%" xml:space="preserve" xmlns="http://www.w3.org/2000/svg" xmlns:xlink="http://www.w3.org/1999/xlink">
<defs>
<linearGradient gradientTransform="matrix(1001.9 1045.18 -1045.18 1001.9 40.0174 -10.5999)" gradientUnits="userSpaceOnUse" id="LinearGradient" x1="0" x2="1" y1="0" y2="0">
<stop offset="0" stop-color="#60cf4d"/>
<stop offset="0.386273" stop-color="#91d04b"/>
<stop offset="1" stop-color="#f1d244"/>
</linearGradient>
<linearGradient gradientTransform="matrix(1001.9 1045.18 -1045.18 1001.9 11.0487 -10.5912)" gradientUnits="userSpaceOnUse" id="LinearGradient_2" x1="0" x2="1" y1="0" y2="0">
<stop offset="0" stop-color="#60cf4d"/>
<stop offset="0.386273" stop-color="#91d04b"/>
<stop offset="1" stop-color="#f1d244"/>
</linearGradient>
</defs>
<g id="Icon">
<path d="M300 0L724 0C889.686 0.00016276 1024 134.315 1024 300L1024 413.219L1024 724C1024 889.685 889.685 1024 724 1024L300 1024C134.315 1024 0 889.685 0 724L0 300C0 134.315 134.315 0 300 0Z" fill="url(#LinearGradient)" fill-rule="nonzero" opacity="1" stroke="none"/>
<path d="M472.156 409.531C458.711 419.311 446.048 430.242 434.281 442.438C412.377 465.14 394.437 491.441 380.375 521.281L483.031 636.281C489.333 587.792 504.131 548.424 527.562 518.406C534.29 509.788 541.522 502.122 549.219 495.312L472.156 409.531Z" fill="#6a884e" fill-rule="nonzero" opacity="0.502663" stroke="none"/>
<path d="M814.438 790.625C811.915 796.228 809.512 802.132 807.375 808.656C794.082 844.991 774.362 872.523 748.219 891.281C740.452 896.854 732.109 901.489 723.312 905.406L800.344 991.688C824.45 978.976 844.993 963.69 861.875 945.781C879.356 927.237 893.043 908.423 903.062 889.312L814.438 790.625Z" fill="#6a884e" fill-rule="nonzero" opacity="0.502663" stroke="none"/>
<path d="M655.844 352.25C612.715 352.25 572.076 359.92 533.969 375.281C511.673 384.268 491.115 395.741 472.156 409.531L549.219 495.312C578.192 469.679 614.006 456.812 656.719 456.812C690.69 456.812 719.279 464.798 742.469 480.75C765.658 496.702 785.804 520.77 802.938 552.969C813.277 572.466 822.675 586.212 831.094 594.188C839.513 602.163 852.131 606.156 868.969 606.156C884.034 606.156 896.897 600.396 907.531 588.875C918.166 577.354 923.469 564.066 923.469 549C923.469 521.527 912.547 492.339 890.688 461.469C868.828 430.599 837.342 404.692 796.281 383.719C755.22 362.745 708.426 352.25 655.844 352.25Z" fill="#6a884e" fill-rule="nonzero" opacity="0.902036" stroke="none"/>
<path d="M868.094 750.594C849.779 750.594 836.459 755.999 828.188 766.781C823.066 773.458 818.54 781.513 814.438 790.625L903.062 889.312C905.572 884.525 907.896 879.729 909.938 874.906C920.129 850.831 925.25 828.428 925.25 807.75C925.25 791.503 919.632 777.93 908.406 767C897.181 756.07 883.75 750.594 868.094 750.594Z" fill="#6a884e" fill-rule="nonzero" opacity="0.902036" stroke="none"/>
<path d="M380.375 521.281C376.231 530.075 372.369 539.118 368.906 548.531C353.693 589.888 346.094 636.713 346.094 689C346.094 721.199 349.132 751.627 355.188 780.281C361.243 808.935 370.326 835.899 382.438 861.156C394.549 886.413 409.179 909.242 426.312 929.625C445.514 952.076 466.544 970.17 489.438 983.906C512.331 997.642 537.812 1007.75 565.875 1014.25C593.939 1020.75 625.108 1024 659.375 1024C704.572 1024 744.153 1016.76 778.125 1002.28C785.86 998.985 793.236 995.435 800.344 991.688L723.312 905.406C702.499 914.675 678.86 919.438 652.281 919.438C617.424 919.437 586.996 911.168 561 894.625C535.004 878.082 514.929 853.028 500.75 819.5C486.571 785.972 479.469 743.952 479.469 693.438C479.469 673.099 480.713 654.12 483.031 636.281L380.375 521.281Z" fill="#6a884e" fill-rule="nonzero" opacity="0.902036" stroke="none"/>
<path d="M621.062 0L271.688 399.531L380.375 521.281C394.437 491.441 412.377 465.14 434.281 442.438C446.048 430.242 458.711 419.311 472.156 409.531L454.188 389.5L790.531 7.5C769.122 2.65001 746.876 2.24723e-05 724 0L621.062 0Z" fill="#eeffd8" fill-rule="nonzero" opacity="0.901832" stroke="none"/>
<path d="M903.062 889.312C893.043 908.423 879.356 927.237 861.875 945.781C844.993 963.69 824.45 978.976 800.344 991.688L816.219 1009.47C864.142 994 906.75 966.825 940.75 931.281L903.062 889.312Z" fill="#eeffd8" fill-rule="nonzero" opacity="0.901832" stroke="none"/>
<path d="M271.688 1.375C213.369 6.83443 159.947 28.9803 116.156 63L116.156 961C159.947 995.02 213.369 1017.17 271.688 1022.62L271.688 399.531L271.688 1.375Z" fill="#eeffd8" fill-rule="nonzero" opacity="0.901832" stroke="none"/>
<path d="M549.219 495.312C541.522 502.122 534.29 509.788 527.562 518.406C504.131 548.424 489.333 587.792 483.031 636.281L723.312 905.406C732.109 901.489 740.452 896.854 748.219 891.281C774.362 872.523 794.082 844.991 807.375 808.656C809.512 802.132 811.915 796.228 814.438 790.625L549.219 495.312Z" fill="#eeffd8" fill-rule="nonzero" opacity="0.901832" stroke="none"/>
</g>
<clipPath id="ArtboardFrame">
<rect height="1024" width="1024" x="0" y="0"/>
</clipPath>
<g clip-path="url(#ArtboardFrame)" id="Square" visibility="hidden">
<path d="M533.64-511.542L1535.54 533.64L490.36 1535.54L-511.542 490.36L533.64-511.542Z" fill="url(#LinearGradient_2)" fill-rule="nonzero" opacity="1" stroke="none"/>
<path d="M472.156 409.531C458.711 419.311 446.048 430.242 434.281 442.438C412.377 465.14 394.437 491.441 380.375 521.281L483.031 636.281C489.333 587.792 504.131 548.424 527.562 518.406C534.29 509.788 541.522 502.122 549.219 495.312L472.156 409.531ZM814.438 790.625C811.915 796.228 809.512 802.132 807.375 808.656C794.082 844.991 774.362 872.523 748.219 891.281C740.452 896.854 732.109 901.489 723.312 905.406L800.344 991.688C824.45 978.976 844.993 963.69 861.875 945.781C879.356 927.237 893.043 908.423 903.062 889.312L814.438 790.625Z" fill="#6a884e" fill-rule="nonzero" opacity="0.502663" stroke="none"/>
<path d="M655.844 352.25C612.715 352.25 572.076 359.92 533.969 375.281C511.673 384.268 491.115 395.741 472.156 409.531L549.219 495.312C578.192 469.679 614.006 456.812 656.719 456.812C690.69 456.812 719.279 464.798 742.469 480.75C765.658 496.702 785.804 520.77 802.938 552.969C813.277 572.466 822.675 586.212 831.094 594.188C839.513 602.163 852.131 606.156 868.969 606.156C884.034 606.156 896.897 600.396 907.531 588.875C918.166 577.354 923.469 564.066 923.469 549C923.469 521.527 912.547 492.339 890.688 461.469C868.828 430.599 837.342 404.692 796.281 383.719C755.22 362.745 708.426 352.25 655.844 352.25ZM868.094 750.594C849.779 750.594 836.459 755.999 828.188 766.781C823.066 773.458 818.54 781.513 814.438 790.625L903.062 889.312C905.572 884.525 907.896 879.729 909.938 874.906C920.129 850.831 925.25 828.428 925.25 807.75C925.25 791.503 919.632 777.93 908.406 767C897.181 756.07 883.75 750.594 868.094 750.594ZM380.375 521.281C376.231 530.075 372.369 539.118 368.906 548.531C353.693 589.888 346.094 636.713 346.094 689C346.094 721.199 349.132 751.627 355.188 780.281C361.243 808.935 370.326 835.899 382.438 861.156C394.549 886.413 409.179 909.242 426.312 929.625C445.514 952.076 466.544 970.17 489.438 983.906C512.331 997.642 537.812 1007.75 565.875 1014.25C593.939 1020.75 625.108 1024 659.375 1024C704.572 1024 744.153 1016.76 778.125 1002.28C785.86 998.985 793.236 995.435 800.344 991.688L723.312 905.406C702.499 914.675 678.86 919.438 652.281 919.438C617.424 919.437 586.996 911.168 561 894.625C535.004 878.082 514.929 853.028 500.75 819.5C486.571 785.972 479.469 743.952 479.469 693.438C479.469 673.099 480.713 654.12 483.031 636.281L380.375 521.281Z" fill="#6a884e" fill-rule="nonzero" opacity="0.902036" stroke="none"/>
<path d="M271.688 399.531L380.375 521.281C394.437 491.441 412.377 465.14 434.281 442.438C446.048 430.242 458.711 419.311 472.156 409.531L454.188 389.5L947.75-171.062L770.656-171.062L271.688 399.531Z" fill="#eeffd8" fill-rule="nonzero" opacity="0.901832" stroke="none"/>
<path d="M903.062 889.312C893.043 908.423 879.356 927.237 861.875 945.781C844.993 963.69 824.45 978.976 800.344 991.688L829.188 1024L1024 1024L903.062 889.312Z" fill="#eeffd8" fill-rule="nonzero" opacity="0.901832" stroke="none"/>
<path d="M116.156-171.062L116.156 1024L271.688 1024L271.688 399.531L271.688-171.062L116.156-171.062Z" fill="#eeffd8" fill-rule="nonzero" opacity="0.901832" stroke="none"/>
<path d="M549.219 495.312C541.522 502.122 534.29 509.788 527.562 518.406C504.131 548.424 489.333 587.792 483.031 636.281L723.312 905.406C732.109 901.489 740.452 896.854 748.219 891.281C774.362 872.523 794.082 844.991 807.375 808.656C809.512 802.132 811.915 796.228 814.438 790.625L549.219 495.312Z" fill="#eeffd8" fill-rule="nonzero" opacity="0.901832" stroke="none"/>
</g>
</svg>
