<?xml version="1.0" encoding="UTF-8" standalone="no"?>
<!DOCTYPE svg PUBLIC "-//W3C//DTD SVG 1.1//EN" "http://www.w3.org/Graphics/SVG/1.1/DTD/svg11.dtd">
<!-- Created with Vectornator (http://vectornator.io/) -->
<svg height="100%" stroke-miterlimit="10" style="fill-rule:nonzero;clip-rule:evenodd;stroke-linecap:round;stroke-linejoin:round;" version="1.1" viewBox="0 0 1024 1024" width="100%" xml:space="preserve" xmlns="http://www.w3.org/2000/svg" xmlns:xlink="http://www.w3.org/1999/xlink">
<defs/>
<clipPath id="ArtboardFrame">
<rect height="1024" width="1024" x="0" y="0"/>
</clipPath>
<g clip-path="url(#ArtboardFrame)" id="Layer-1">
<path d="M0 200C0 89.5431 89.5431 0 200 0L824 0C934.457 0 1024 89.5431 1024 200L1024 824C1024 934.457 934.457 1024 824 1024L200 1024C89.5431 1024 0 934.457 0 824L0 200Z" fill="#02f4a7" fill-rule="nonzero" opacity="1" stroke="none"/>
<path d="M379.078-41.8086C379.078-115.219 438.589-174.73 512-174.73L512-174.73C585.411-174.73 644.922-115.219 644.922-41.8086L644.922 1065.81C644.922 1139.22 585.411 1198.73 512 1198.73L512 1198.73C438.589 1198.73 379.078 1139.22 379.078 1065.81L379.078-41.8086Z" fill="#d1ffe6" fill-rule="nonzero" opacity="1" stroke="none"/>
</g>
</svg>
